<svg width="20" height="20" viewBox="0 0 20 20" fill="none" xmlns="http://www.w3.org/2000/svg">
<path d="M9.26465 3.26818C9.26465 3.48033 9.34893 3.6838 9.49894 3.83381C9.64896 3.98383 9.85242 4.0681 10.0646 4.0681L16.464 4.0681C16.5347 4.0681 16.6025 4.0962 16.6525 4.1462C16.7025 4.19621 16.7306 4.26403 16.7306 4.33475L16.7306 17.1335C16.7306 17.2042 16.7025 17.2721 16.6525 17.3221C16.6025 17.3721 16.5347 17.4002 16.464 17.4002H10.0646C9.85242 17.4002 9.64896 17.4844 9.49894 17.6344C9.34893 17.7845 9.26465 17.9879 9.26465 18.2001C9.26465 18.4122 9.34893 18.6157 9.49894 18.7657C9.64896 18.9157 9.85242 19 10.0646 19H16.464C17.4943 19 18.3304 18.1638 18.3304 17.1335V4.33475C18.3304 3.83972 18.1338 3.36497 17.7838 3.01494C17.4337 2.66491 16.959 2.46826 16.464 2.46826H10.0646C9.85242 2.46826 9.64896 2.55254 9.49894 2.70255C9.34893 2.85256 9.26465 3.05603 9.26465 3.26818Z" fill="white" fill-opacity="0.8"/>
<path d="M13.9188 9.54465C13.9188 9.26178 13.8065 8.9905 13.6065 8.79048C13.4064 8.59046 13.1351 8.47809 12.8523 8.47809L7.67304 8.47809C7.64851 8.09839 7.61758 7.72083 7.58132 7.34113L7.54932 7.01583C7.5374 6.89323 7.49609 6.77531 7.42888 6.67208C7.36168 6.56886 7.27056 6.48337 7.16327 6.42286C7.05597 6.36236 6.93567 6.32863 6.81256 6.32454C6.68945 6.32045 6.56717 6.34611 6.45609 6.39936C4.50639 7.33378 2.74137 8.61247 1.24593 10.1739L1.21393 10.207C1.07665 10.3502 1 10.5408 1 10.7392C1 10.9376 1.07665 11.1282 1.21393 11.2714L1.24593 11.3045C2.74135 12.866 4.50638 14.1446 6.45609 15.0791C6.56717 15.1323 6.68945 15.158 6.81256 15.1539C6.93567 15.1498 7.05597 15.1161 7.16327 15.0555C7.27056 14.995 7.36168 14.9096 7.42888 14.8063C7.49609 14.7031 7.5374 14.5852 7.54932 14.4626L7.58132 14.1373C7.61758 13.7586 7.64851 13.38 7.67304 13.0003L12.8523 13.0003C13.1351 13.0003 13.4064 12.888 13.6065 12.6879C13.8065 12.4879 13.9188 12.2166 13.9188 11.9338L13.9188 9.54465Z" fill="white" fill-opacity="0.8"/>
</svg>
