<svg width="20" height="20" viewBox="0 0 20 20" fill="none" xmlns="http://www.w3.org/2000/svg">
<path d="M1.59556 14.4789V4.85111C1.59556 2.76381 5.12221 1 9.29778 1C13.4733 1 17 2.76381 17 4.85111V14.4789C17 16.5662 13.4733 18.33 9.29778 18.33C5.12221 18.33 1.59556 16.5662 1.59556 14.4789ZM9.29778 2.92556C5.74417 2.92556 3.58754 4.37646 3.52111 4.84533C3.58754 5.32576 5.74417 6.77667 9.29778 6.77667C12.8514 6.77667 15.008 5.32576 15.0744 4.85689C15.008 4.37646 12.8514 2.92556 9.29778 2.92556ZM15.0744 7.36107C13.6505 8.17655 11.5728 8.70222 9.29778 8.70222C7.02273 8.70222 4.94506 8.17655 3.52111 7.36107V9.65922C3.58754 10.1397 5.74417 11.5906 9.29778 11.5906C12.8514 11.5906 15.008 10.1396 15.0744 9.665V7.36107ZM15.0744 14.4789V12.175C13.6505 12.9904 11.5728 13.5161 9.29778 13.5161C7.02273 13.5161 4.94506 12.9904 3.52111 12.175V14.4731C3.58754 14.9535 5.74417 16.4044 9.29778 16.4044C12.8514 16.4044 15.008 14.9535 15.0744 14.4789Z" fill="white" fill-opacity="0.8"/>
</svg>
