<svg width="18" height="18" viewBox="0 0 18 18" fill="none" xmlns="http://www.w3.org/2000/svg">
<path fill-rule="evenodd" clip-rule="evenodd" d="M17.667 15.267L17.667 15.3337C17.667 15.639 17.667 15.9017 17.6123 16.1337C17.5265 16.4928 17.3429 16.8212 17.0819 17.0824C16.8209 17.3436 16.4927 17.5275 16.1337 17.6137C15.9017 17.667 15.6403 17.667 15.3337 17.667L12.0003 17.667C11.695 17.667 11.4323 17.667 11.2003 17.6123C10.8412 17.5265 10.5128 17.3429 10.2516 17.0819C9.99034 16.8209 9.80647 16.4927 9.72033 16.1337C9.66699 15.9017 9.66699 15.6403 9.66699 15.3337L9.66699 12.0003C9.66699 11.695 9.66699 11.4323 9.72166 11.2003C9.80748 10.8412 9.99105 10.5128 10.252 10.2516C10.513 9.99034 10.8413 9.80647 11.2003 9.72033C11.4323 9.66699 11.6937 9.66699 12.0003 9.66699L15.3337 9.66699C15.639 9.66699 15.9017 9.66699 16.1337 9.72166C16.4928 9.80748 16.8212 9.99105 17.0824 10.252C17.3436 10.513 17.5275 10.8413 17.6137 11.2003C17.667 11.4323 17.667 11.6937 17.667 12.0003L17.667 12.067L17.667 15.267ZM16.315 15.823C16.3283 15.7657 16.3337 15.6763 16.3337 15.267L16.3337 12.067C16.3337 11.6563 16.3297 11.5683 16.315 11.511C16.2863 11.3912 16.2251 11.2817 16.138 11.1946C16.0509 11.1076 15.9414 11.0463 15.8217 11.0177C15.7657 11.0043 15.6777 11.0003 15.267 11.0003L12.067 11.0003C11.6563 11.0003 11.5683 11.0043 11.511 11.019C11.3912 11.0476 11.2817 11.1089 11.1946 11.196C11.1076 11.2831 11.0463 11.3926 11.0177 11.5123C11.0057 11.567 11.0003 11.655 11.0003 12.067L11.0003 15.267C11.0003 15.6777 11.0043 15.7657 11.019 15.823C11.0476 15.9428 11.1089 16.0523 11.196 16.1393C11.2831 16.2264 11.3926 16.2877 11.5123 16.3163C11.567 16.3283 11.655 16.3337 12.067 16.3337L15.267 16.3337C15.6777 16.3337 15.7657 16.3297 15.823 16.315C15.9428 16.2864 16.0523 16.2251 16.1393 16.138C16.2264 16.0509 16.2877 15.9414 16.3163 15.8217M17.667 5.93366L17.667 6.00033C17.667 6.30566 17.667 6.56833 17.6123 6.80033C17.5265 7.15948 17.3429 7.48786 17.0819 7.74908C16.8209 8.01031 16.4927 8.19418 16.1337 8.28033C15.9017 8.33366 15.6403 8.33366 15.3337 8.33366L12.0003 8.33366C11.695 8.33366 11.4323 8.33366 11.2003 8.27899C10.8412 8.19317 10.5128 8.0096 10.2516 7.74861C9.99034 7.48762 9.80647 7.1594 9.72032 6.80033C9.66699 6.56833 9.66699 6.30699 9.66699 6.00033L9.66699 2.66699C9.66699 2.36166 9.66699 2.09899 9.72166 1.86699C9.80748 1.50784 9.99105 1.17946 10.252 0.918232C10.513 0.657008 10.8413 0.473135 11.2003 0.386992C11.4323 0.333658 11.6937 0.333658 12.0003 0.333658L15.3337 0.333658C15.639 0.333658 15.9017 0.333658 16.1337 0.388325C16.4928 0.474146 16.8212 0.657721 17.0824 0.918711C17.3436 1.1797 17.5275 1.50792 17.6137 1.86699C17.667 2.09899 17.667 2.36032 17.667 2.66699L17.667 2.73366L17.667 5.93366ZM16.315 6.48966C16.3283 6.43232 16.3337 6.34299 16.3337 5.93366L16.3337 2.73366C16.3337 2.32299 16.3297 2.23499 16.315 2.17766C16.2863 2.05789 16.2251 1.94839 16.138 1.86131C16.0509 1.77423 15.9414 1.71297 15.8217 1.68432C15.7657 1.67099 15.6777 1.66699 15.267 1.66699L12.067 1.66699C11.6563 1.66699 11.5683 1.67233 11.511 1.68566C11.3912 1.7143 11.2817 1.77556 11.1946 1.86264C11.1076 1.94972 11.0463 2.05922 11.0177 2.17899C11.0043 2.23499 11.0003 2.32299 11.0003 2.73366L11.0003 5.93366C11.0003 6.34433 11.0043 6.43232 11.019 6.48966C11.0476 6.60943 11.1089 6.71893 11.196 6.80601C11.2831 6.89309 11.3926 6.95435 11.5123 6.98299C11.567 6.99499 11.655 7.00033 12.067 7.00033L15.267 7.00033C15.6777 7.00033 15.7657 6.99633 15.823 6.98166C15.9428 6.95302 16.0523 6.89176 16.1393 6.80468C16.2264 6.7176 16.2877 6.6081 16.3163 6.48833M8.33366 15.3337L8.33366 12.0003C8.33366 11.695 8.33366 11.4323 8.27899 11.2003C8.19317 10.8412 8.0096 10.5128 7.74861 10.2516C7.48762 9.99034 7.1594 9.80647 6.80033 9.72033C6.56833 9.66699 6.30699 9.66699 6.00032 9.66699L2.66699 9.66699C2.36166 9.66699 2.09899 9.66699 1.86699 9.72166C1.50784 9.80748 1.17946 9.99105 0.918232 10.252C0.657007 10.513 0.473135 10.8413 0.386991 11.2003C0.333658 11.4323 0.333658 11.6937 0.333658 12.0003L0.333658 15.3337C0.333658 15.639 0.333658 15.9017 0.388325 16.1337C0.474146 16.4928 0.657721 16.8212 0.918711 17.0824C1.1797 17.3436 1.50792 17.5275 1.86699 17.6137C2.09899 17.667 2.36032 17.667 2.66699 17.667L6.00033 17.667C6.30566 17.667 6.56833 17.667 6.80033 17.6123C7.15948 17.5265 7.48786 17.3429 7.74908 17.0819C8.01031 16.8209 8.19418 16.4927 8.28032 16.1337C8.33366 15.9017 8.33366 15.6403 8.33366 15.3337ZM7.00033 15.267C7.00033 15.6777 6.99633 15.7657 6.98166 15.823C6.95302 15.9428 6.89176 16.0523 6.80468 16.1393C6.7176 16.2264 6.6081 16.2877 6.48833 16.3163C6.43366 16.3283 6.34566 16.3337 5.93366 16.3337L2.73366 16.3337C2.32299 16.3337 2.23499 16.3297 2.17766 16.315C2.05789 16.2864 1.94839 16.2251 1.86131 16.138C1.77423 16.0509 1.71297 15.9414 1.68432 15.8217C1.67099 15.7657 1.66699 15.6777 1.66699 15.267L1.66699 12.067C1.66699 11.6563 1.67232 11.5683 1.68566 11.511C1.7143 11.3912 1.77556 11.2817 1.86264 11.1946C1.94972 11.1076 2.05922 11.0463 2.17899 11.0177C2.23499 11.0043 2.32299 11.0003 2.73366 11.0003L5.93366 11.0003C6.34432 11.0003 6.43232 11.0043 6.48966 11.019C6.60943 11.0476 6.71893 11.1089 6.80601 11.196C6.89309 11.2831 6.95435 11.3926 6.98299 11.5123C6.99499 11.567 7.00032 11.655 7.00032 12.067L7.00033 15.267ZM8.33366 5.93366L8.33366 6.00033C8.33366 6.30566 8.33366 6.56833 8.27899 6.80033C8.19317 7.15948 8.0096 7.48786 7.74861 7.74908C7.48762 8.01031 7.1594 8.19418 6.80032 8.28033C6.56833 8.33366 6.30699 8.33366 6.00032 8.33366L2.66699 8.33366C2.36166 8.33366 2.09899 8.33366 1.86699 8.27899C1.50784 8.19317 1.17946 8.0096 0.918232 7.74861C0.657007 7.48762 0.473135 7.1594 0.386991 6.80033C0.332324 6.56833 0.332324 6.30566 0.332324 6.00033L0.332324 2.66699C0.332324 2.36166 0.332324 2.09899 0.386991 1.86699C0.473027 1.50809 0.656699 1.17999 0.917674 0.919011C1.17865 0.658034 1.50675 0.474364 1.86566 0.388325C2.09766 0.333659 2.36032 0.333659 2.66566 0.333659L6.00032 0.333659C6.30566 0.333659 6.56833 0.333659 6.80032 0.388325C7.15948 0.474146 7.48786 0.657721 7.74908 0.918711C8.01031 1.1797 8.19418 1.50792 8.28032 1.86699C8.33366 2.09899 8.33366 2.36033 8.33366 2.66699L8.33366 2.73366L8.33366 5.93366ZM6.98166 6.48966C6.99499 6.43232 7.00032 6.34299 7.00032 5.93366L7.00032 2.73366C7.00032 2.32299 6.99632 2.23499 6.98166 2.17766C6.95302 2.05789 6.89176 1.94839 6.80468 1.86131C6.7176 1.77423 6.6081 1.71297 6.48832 1.68432C6.43232 1.67099 6.34432 1.66699 5.93366 1.66699L2.73366 1.66699C2.32299 1.66699 2.23499 1.67233 2.17766 1.68566C2.05789 1.7143 1.94839 1.77556 1.86131 1.86264C1.77422 1.94972 1.71297 2.05922 1.68432 2.17899C1.67099 2.23499 1.66699 2.32299 1.66699 2.73366L1.66699 5.93366C1.66699 6.34433 1.67232 6.43233 1.68566 6.48966C1.7143 6.60943 1.77556 6.71893 1.86264 6.80601C1.94972 6.89309 2.05922 6.95435 2.17899 6.98299C2.23366 6.99499 2.32166 7.00033 2.73366 7.00033L5.93366 7.00033C6.34432 7.00033 6.43232 6.99633 6.48966 6.98166C6.60943 6.95302 6.71893 6.89176 6.80601 6.80468C6.89309 6.7176 6.95435 6.6081 6.98299 6.48833" fill="white"/>
</svg>
