<svg width="16" height="17" viewBox="0 0 16 17" fill="none" xmlns="http://www.w3.org/2000/svg">
<path d="M9.80039 11.3C9.95952 11.3 10.1121 11.3632 10.2247 11.4757C10.3372 11.5883 10.4004 11.7409 10.4004 11.9C10.4004 12.0591 10.3372 12.2117 10.2247 12.3243C10.1121 12.4368 9.95952 12.5 9.80039 12.5H6.20039C6.04126 12.5 5.88865 12.4368 5.77613 12.3243C5.6636 12.2117 5.60039 12.0591 5.60039 11.9C5.60039 11.7409 5.6636 11.5883 5.77613 11.4757C5.88865 11.3632 6.04126 11.3 6.20039 11.3H9.80039ZM11.4004 7.9C11.5595 7.9 11.7121 7.96321 11.8247 8.07574C11.9372 8.18826 12.0004 8.34087 12.0004 8.5C12.0004 8.65913 11.9372 8.81174 11.8247 8.92426C11.7121 9.03679 11.5595 9.1 11.4004 9.1H4.60039C4.44126 9.1 4.28865 9.03679 4.17613 8.92426C4.0636 8.81174 4.00039 8.65913 4.00039 8.5C4.00039 8.34087 4.0636 8.18826 4.17613 8.07574C4.28865 7.96321 4.44126 7.9 4.60039 7.9H11.4004ZM13.0004 4.5C13.1595 4.5 13.3121 4.56321 13.4247 4.67574C13.5372 4.78826 13.6004 4.94087 13.6004 5.1C13.6004 5.25913 13.5372 5.41174 13.4247 5.52426C13.3121 5.63679 13.1595 5.7 13.0004 5.7H3.00039C2.84126 5.7 2.68865 5.63679 2.57613 5.52426C2.4636 5.41174 2.40039 5.25913 2.40039 5.1C2.40039 4.94087 2.4636 4.78826 2.57613 4.67574C2.68865 4.56321 2.84126 4.5 3.00039 4.5H13.0004Z" fill="white"/>
</svg>
