<svg width="20" height="20" viewBox="0 0 20 20" fill="none" xmlns="http://www.w3.org/2000/svg">
<path d="M6.81258 2.92739C6.5573 2.92739 6.31248 3.0288 6.13198 3.2093C5.95147 3.38981 5.85006 3.63463 5.85006 3.88991C5.85006 4.14518 5.95147 4.39 6.13198 4.57051C6.31248 4.75101 6.5573 4.85242 6.81258 4.85242C7.06785 4.85242 7.31267 4.75101 7.49318 4.57051C7.67369 4.39 7.77509 4.14518 7.77509 3.88991C7.77509 3.63463 7.67369 3.38981 7.49318 3.2093C7.31267 3.0288 7.06785 2.92739 6.81258 2.92739ZM4.08866 2.92739C4.28752 2.36381 4.65629 1.87578 5.14415 1.53058C5.63201 1.18538 6.21494 1 6.81258 1C7.41022 1 7.99314 1.18538 8.481 1.53058C8.96886 1.87578 9.33764 2.36381 9.5365 2.92739H16.4377C16.693 2.92739 16.9378 3.0288 17.1183 3.2093C17.2988 3.38981 17.4003 3.63463 17.4003 3.88991C17.4003 4.14518 17.2988 4.39 17.1183 4.57051C16.9378 4.75101 16.693 4.85242 16.4377 4.85242H9.5365C9.33764 5.41601 8.96886 5.90403 8.481 6.24923C7.99314 6.59444 7.41022 6.77981 6.81258 6.77981C6.21494 6.77981 5.63201 6.59444 5.14415 6.24923C4.65629 5.90403 4.28752 5.41601 4.08866 4.85242H2.96252C2.70724 4.85242 2.46242 4.75101 2.28191 4.57051C2.10141 4.39 2 4.14518 2 3.88991C2 3.63463 2.10141 3.38981 2.28191 3.2093C2.46242 3.0288 2.70724 2.92739 2.96252 2.92739H4.08866ZM12.5877 8.70248C12.3324 8.70248 12.0876 8.80389 11.9071 8.9844C11.7266 9.1649 11.6252 9.40973 11.6252 9.665C11.6252 9.92027 11.7266 10.1651 11.9071 10.3456C12.0876 10.5261 12.3324 10.6275 12.5877 10.6275C12.8429 10.6275 13.0878 10.5261 13.2683 10.3456C13.4488 10.1651 13.5502 9.92027 13.5502 9.665C13.5502 9.40973 13.4488 9.1649 13.2683 8.9844C13.0878 8.80389 12.8429 8.70248 12.5877 8.70248ZM9.86375 8.70248C10.0626 8.1389 10.4314 7.65087 10.9192 7.30567C11.4071 6.96047 11.99 6.77509 12.5877 6.77509C13.1853 6.77509 13.7682 6.96047 14.2561 7.30567C14.744 7.65087 15.1127 8.1389 15.3116 8.70248H16.4377C16.693 8.70248 16.9378 8.80389 17.1183 8.9844C17.2988 9.1649 17.4003 9.40973 17.4003 9.665C17.4003 9.92027 17.2988 10.1651 17.1183 10.3456C16.9378 10.5261 16.693 10.6275 16.4377 10.6275H15.3116C15.1127 11.1911 14.744 11.6791 14.2561 12.0243C13.7682 12.3695 13.1853 12.5549 12.5877 12.5549C11.99 12.5549 11.4071 12.3695 10.9192 12.0243C10.4314 11.6791 10.0626 11.1911 9.86375 10.6275H2.96252C2.70724 10.6275 2.46242 10.5261 2.28191 10.3456C2.10141 10.1651 2 9.92027 2 9.665C2 9.40973 2.10141 9.1649 2.28191 8.9844C2.46242 8.80389 2.70724 8.70248 2.96252 8.70248H9.86375ZM6.81258 14.4776C6.5573 14.4776 6.31248 14.579 6.13198 14.7595C5.95147 14.94 5.85006 15.1848 5.85006 15.4401C5.85006 15.6954 5.95147 15.9402 6.13198 16.1207C6.31248 16.3012 6.5573 16.4026 6.81258 16.4026C7.06785 16.4026 7.31267 16.3012 7.49318 16.1207C7.67369 15.9402 7.77509 15.6954 7.77509 15.4401C7.77509 15.1848 7.67369 14.94 7.49318 14.7595C7.31267 14.579 7.06785 14.4776 6.81258 14.4776ZM4.08866 14.4776C4.28752 13.914 4.65629 13.426 5.14415 13.0808C5.63201 12.7356 6.21494 12.5502 6.81258 12.5502C7.41022 12.5502 7.99314 12.7356 8.481 13.0808C8.96886 13.426 9.33764 13.914 9.5365 14.4776H16.4377C16.693 14.4776 16.9378 14.579 17.1183 14.7595C17.2988 14.94 17.4003 15.1848 17.4003 15.4401C17.4003 15.6954 17.2988 15.9402 17.1183 16.1207C16.9378 16.3012 16.693 16.4026 16.4377 16.4026H9.5365C9.33764 16.9662 8.96886 17.4542 8.481 17.7994C7.99314 18.1446 7.41022 18.33 6.81258 18.33C6.21494 18.33 5.63201 18.1446 5.14415 17.7994C4.65629 17.4542 4.28752 16.9662 4.08866 16.4026H2.96252C2.70724 16.4026 2.46242 16.3012 2.28191 16.1207C2.10141 15.9402 2 15.6954 2 15.4401C2 15.1848 2.10141 14.94 2.28191 14.7595C2.46242 14.579 2.70724 14.4776 2.96252 14.4776H4.08866Z" fill="white" fill-opacity="0.8"/>
</svg>
