<svg width="28" height="33" viewBox="0 0 28 33" fill="none" xmlns="http://www.w3.org/2000/svg">
<path d="M13.9225 32.9224C12.1174 32.9118 10.6492 31.4263 10.6598 29.6212L17.2238 29.6597C17.2132 31.4648 15.7276 32.933 13.9225 32.9224ZM4.13433 23.0187L4.18247 14.8137C4.21203 9.77581 6.91161 5.57414 11.6278 4.4859L11.6344 3.37002C11.6423 2.01057 12.7509 0.914992 14.1103 0.922969C15.4697 0.930946 16.5653 2.03946 16.5574 3.39891L16.5508 4.51479C21.2375 5.6582 23.9041 9.87495 23.8744 14.9292L23.8263 23.1342L26.7512 26.0936C26.9675 26.3125 27.088 26.6083 27.0862 26.9161C27.0825 27.5569 26.5599 28.0734 25.919 28.0696L1.98381 27.9292C1.34296 27.9254 0.826496 27.4029 0.830257 26.762C0.832062 26.4543 0.956047 26.1599 1.17493 25.9435L4.13433 23.0187ZM7.40669 24.6789L20.5347 24.7559L20.5924 14.91C20.6163 10.8403 18.1579 7.51093 14.0718 7.48696C9.9857 7.46298 7.48835 10.7633 7.46447 14.8329L7.40669 24.6789Z" fill="white" fill-opacity="0.8"/>
</svg>
