<svg width="14" height="18" viewBox="0 0 14 18" fill="none" xmlns="http://www.w3.org/2000/svg">
<path d="M1.62143 1.85679H3.47821V1.23786C3.47821 0.909557 3.60863 0.594703 3.84077 0.36256C4.07292 0.130417 4.38777 0 4.71607 0L9.6675 0C9.9958 0 10.3107 0.130417 10.5428 0.36256C10.7749 0.594703 10.9054 0.909557 10.9054 1.23786V1.85679L12.7621 1.85679C13.0904 1.85679 13.4053 1.9872 13.6374 2.21935C13.8696 2.45149 14 2.76634 14 3.09464V16.0921C14 16.4204 13.8696 16.7353 13.6374 16.9674C13.4053 17.1996 13.0904 17.33 12.7621 17.33H1.62143C1.29313 17.33 0.978275 17.1996 0.746132 16.9674C0.513988 16.7353 0.383572 16.4204 0.383572 16.0921V3.09464C0.383572 2.76634 0.513988 2.45149 0.746132 2.21935C0.978275 1.9872 1.29313 1.85679 1.62143 1.85679ZM9.6675 1.23786L4.71607 1.23786V3.71357L9.6675 3.71357V1.23786ZM1.62143 16.0921H12.7621V3.09464H10.9054V4.95143H3.47821V3.09464H1.62143V16.0921Z" fill="white" fill-opacity="0.8"/>
</svg>
